<?xml version="1.0" standalone="no"?>
<!DOCTYPE svg PUBLIC "-//W3C//DTD SVG 20010904//EN"
 "http://www.w3.org/TR/2001/REC-SVG-20010904/DTD/svg10.dtd">
<svg version="1.0" xmlns="http://www.w3.org/2000/svg"
 width="150.000000pt" height="150.000000pt" viewBox="0 0 150.000000 150.000000"
 preserveAspectRatio="xMidYMid meet">

<g transform="translate(0.000000,150.000000) scale(0.100000,-0.100000)"
fill="#1383ff" stroke="none">
<path d="M1031 1248 c-95 -16 -160 -81 -176 -175 l-7 -43 -54 0 c-52 0 -54 -1
-74 -40 -36 -71 -52 -166 -47 -275 8 -185 80 -291 229 -340 37 -13 75 -16 153
-13 94 3 109 6 171 38 130 67 183 173 191 382 10 241 -45 371 -185 442 -42 22
-145 34 -201 24z m121 -134 c31 -9 77 -73 95 -132 24 -81 24 -256 -2 -336 -63
-198 -292 -225 -389 -45 -22 40 -30 70 -34 124 -5 75 10 171 32 200 11 15 15
11 34 -41 34 -93 71 -144 105 -144 42 0 100 27 91 42 -5 7 -21 33 -37 56 -122
181 -67 324 105 276z"/>
<path d="M258 1243 c-118 -4 -112 -1 -128 -82 -13 -69 -11 -70 96 -64 l94 6 2
-379 3 -379 55 -3 c73 -4 134 13 125 36 -25 64 -44 457 -30 635 l7 98 96 -2
97 -2 6 29 c4 16 7 48 8 72 l1 42 -162 -2 c-90 -1 -211 -4 -270 -5z"/>
</g>
</svg>
